<svg xmlns="http://www.w3.org/2000/svg" width="600" height="300" viewBox="0 0 600 300"><g fill="none" stroke="#68cdd6" stroke-opacity=".15"><path d="M0 40h90l36 36h76M0 85h58l40 40h76M0 155h106l35 35h51M0 240h68l36-36h64M600 50h-95l-42 42h-65M600 112h-55l-48 48h-65M600 225h-108l-35-35h-62M600 265h-70l-33-33h-82"/><g fill="#68cdd6" fill-opacity=".2"><circle cx="126" cy="76" r="3"/><circle cx="106" cy="155" r="3"/><circle cx="104" cy="204" r="3"/><circle cx="505" cy="50" r="3"/><circle cx="497" cy="160" r="3"/><circle cx="457" cy="190" r="3"/></g></g></svg>