<svg xmlns="http://www.w3.org/2000/svg" viewBox="0 0 500 88" role="img" aria-label="Digimon Bonds App">
 <defs><linearGradient id="gold" x2="0" y2="1"><stop stop-color="#ffdc91"/><stop offset="1" stop-color="#efa637"/></linearGradient></defs>
 <path d="M13 14h53l-8 58H5z" fill="#10212b" stroke="#f6b34b" stroke-width="2.5"/>
 <g transform="translate(3 0) skewX(-7)">
  <path fill="#e5f3fa" fill-rule="evenodd" d="M18 29h11l7 7v16l-7 7H18zm6 6v18h3l3-3V38l-3-3z"/>
  <path fill="url(#gold)" fill-rule="evenodd" d="M39 29h13l5 5v7l-3 3 3 3v7l-5 5H39zm6 6v6h5l1-1v-4l-1-1zm0 12v6h5l1-1v-4l-1-1z"/>
 </g>
 <text x="82" y="51" fill="#e5f3fa" font-family="Bahnschrift,Arial,sans-serif" font-size="32" font-weight="800" letter-spacing="1.2">DIGIMON <tspan fill="url(#gold)">BONDS</tspan><tspan fill="#a7cad9" font-size="21"> APP</tspan></text>
 <path d="M83 66h368" stroke="#436373"/><path d="M83 66h74" stroke="#f6b34b" stroke-width="2"/><circle cx="459" cy="66" r="2" fill="#f6b34b"/>
</svg>
